# xmcd
#
# Track frame offsets:
#	187
#	19132
#	36695
#	53812
#	66247
#	88687
#	109557
#
# Disc length: 1700 seconds
#
# Revision: 1
# Processed by: cddbd v1.5PL3 Copyright (c) Steve Scherf et al.
# Submitted via: CDex 1.50Beta5
#
DISCID=5c06a207
DTITLE=樋口沙絵子 - 夢見がち
DYEAR=1993
DGENRE=Pop
TTITLE0=夢見がち
TTITLE1=Jungle Love
TTITLE2=今日は笑えない
TTITLE3=涙
TTITLE4=4月の海
TTITLE5=ダイ・ジョウ・ブ・さ!
TTITLE6=START OVER TODAY
EXTD=
EXTT0=
EXTT1=
EXTT2=
EXTT3=
EXTT4=
EXTT5=
EXTT6=
PLAYORDER=
